<?xml version="1.0" encoding="utf-8"?>
<!-- Generator: Adobe Illustrator 18.1.0, SVG Export Plug-In . SVG Version: 6.00 Build 0)  -->
<svg version="1.1" id="Layer_2" xmlns="http://www.w3.org/2000/svg" xmlns:xlink="http://www.w3.org/1999/xlink" x="0px" y="0px"
	 viewBox="28.4 262.5 736.3 77.2" enable-background="new 28.4 262.5 736.3 77.2" xml:space="preserve">
<g>
	<g>
		<path d="M430.4,328.8c-6.3,0-12.1-4.5-12.1-15.6c0-11.5,6.3-15.6,12.1-15.6c5.8,0,12.1,4.1,12.1,15.6
			C442.6,324.3,436.8,328.8,430.4,328.8z M430.4,330.6c10.3,0,18.6-6.6,18.6-17.3c0-11.6-9.3-17.4-18.6-17.4s-18.6,5.8-18.6,17.4
			C411.8,324,420.1,330.6,430.4,330.6z"/>
		<path d="M94.7,292.6c-3.5,0.5-4.7,1.6-5.7,4.4c-4.9,13.3-10.6,28.7-14.9,42.5h-1c-2.5-7.5-8.4-22.5-11.5-30.2l-11,30.2h-1
			c-3.6-11-11.1-31.3-13.8-38.5c-2.3-5.9-3.2-8-7.4-8.4v-1.4H46v1.4c-3.2,0.1-4.7,0.5-4.7,2.5c0,1,0.4,2.2,0.8,3.1l10.3,26.9
			l7.6-20.2l-2.3-5.8c-2.3-5.9-3.5-6.3-7.2-6.5v-1.4h19.1v1.4c-2.2,0-5.6,0.1-5.6,2.7c0,1.2,0.9,2.8,1.9,5.6l9.4,24.4l8.9-24.3
			c0.5-1.6,1.2-3.6,1.2-5.2c0-2.8-2.5-3.1-4.9-3.2v-1.4h14.2V292.6L94.7,292.6z"/>
		<path d="M136.1,338.6h-33.2v-1.2c4-0.3,5.4-0.8,5.4-5.6v-27.3c0-4.9-1.4-5.3-5.4-5.6v-1.2h32.7l0.1,8.8h-1.6
			c-0.9-5.4-2.6-6.5-9.4-6.5h-8.3c-1.3,0-2.1,0-2.1,2.1V316h9.4c5.4,0,6.1-1.4,6.7-5.8h1.4v14.3h-1.4c-0.8-4.9-1.7-5.8-6.7-5.8
			l-9.4-0.1v15.2c0,2.6,0,2.6,9.2,2.6c7.8,0,10.7-1.8,13.4-8.1h1.7L136.1,338.6z"/>
		<path d="M164.8,299.1c-4.1,0.3-5.7,0.6-5.7,5.6v29.2c0,2.5,1.2,2.6,6.2,2.6c9.3,0,13.2-0.3,16.7-8.3h1.6l-3,10.7h-33.2v-1.4
			c4-0.3,5.4-0.8,5.4-5.6v-27.3c0-4.9-1.4-5.3-5.4-5.6v-1.2h17.4V299.1z"/>
		<path d="M209.2,299.1c-4.1,0.3-5.7,0.6-5.7,5.6v29.2c0,2.5,1.2,2.6,6.2,2.6c9.3,0,13.2-0.3,16.7-8.3h1.6l-3,10.7h-33.2v-1.4
			c4-0.3,5.4-0.8,5.4-5.6v-27.3c0-4.9-1.4-5.3-5.4-5.6v-1.2h17.4V299.1z"/>
		<path d="M236.7,337.5c5.3-0.1,5.9-1.2,5.9-5.6v-27.3c0-4.5-0.9-5.3-5.9-5.6v-1.2H255v1.2c-4.5,0.1-6.1,0.6-6.1,5.6V332
			c0,4.8,1.4,5.4,6.1,5.6v1.2h-18.3V337.5z"/>
		<path d="M306.5,299.1c-3.9,0.4-5.8,0.6-5.8,7.9v32.4h-1l-27.1-33.7h-0.1v24c0,6.3,1.3,7.8,5.8,7.9v1.2h-14.5v-1.3
			c4.7-0.3,5.9-1.3,5.9-7.9v-27.1c-2.6-3.1-3.5-3.4-5.9-3.4v-1.2h10.6l23.6,29.6h0.1V307c0-7.1-1.7-7.6-5.9-7.9v-1.2h14.5v1.2H306.5
			z"/>
		<path d="M358.1,318c-2.7,0.3-4.3,0.4-4.3,4.8v12.4c0,0.9-8.1,4.4-15,4.4c-6.1,0-12.9-1.8-17.3-6.6c-3.2-3.6-5.2-7.2-5.2-15.2
			c0-10.3,8-20.7,21.1-20.7c6.2,0,9,2.1,11,2.1c0.5,0,2.6-0.3,2.8-2.1h1.3l0.5,13.1h-1.4c-1.7-4.4-4.9-10.6-13.4-10.6
			c-5.8,0-14.9,3.9-14.9,19.5c0,11.1,6.5,18.1,16,18.1c4.1,0,8.4-1.4,8.4-3.6v-10c0-5.2-1.3-5.2-5.4-5.4V317h15.8V318z"/>
		<path d="M393.6,338.6h-18v-1.2c5.6-0.3,5.8-1.7,5.8-6.2v-30.8H378c-6.7,0-8.4,1.2-9.8,7.9h-1.4l0.4-10.5h34.6l0.4,10.5h-1.4
			c-1.3-6.7-3-7.9-9.8-7.9h-3.4V332c0,4.1,0.8,5.3,5.9,5.6L393.6,338.6L393.6,338.6z"/>
		<path d="M498.3,299.1c-3.9,0.4-5.8,0.6-5.8,7.9v32.4h-1l-27.1-33.7h-0.1v24c0,6.3,1.3,7.8,5.8,7.9v1.2h-14.5v-1.3
			c4.7-0.3,5.9-1.3,5.9-7.9v-27.1c-2.6-3.1-3.5-3.4-5.9-3.4v-1.2h10.6l23.6,29.6h0.1V307c0-7.1-1.7-7.6-5.9-7.9v-1.2h14.5v1.2H498.3
			z"/>
		<path d="M576.7,314.6c-3.1,0.3-5,0.4-5,5.6v14.3c0,1-9.6,5.2-17.4,5.2c-7.1,0-15-2.2-20.2-7.6c-3.7-4.1-5.9-8.4-5.9-17.7
			c0-12,9.3-24,24.6-24c7.2,0,10.5,2.3,12.8,2.3c0.5,0,3-0.4,3.4-2.3h1.6l0.5,15.1h-1.7c-1.9-5.2-5.7-12.3-15.6-12.3
			c-6.8,0-17.3,4.5-17.3,22.6c0,12.9,7.5,21.1,18.6,21.1c4.9,0,9.8-1.7,9.8-4.3V321c0-5.9-1.4-6.1-6.3-6.3v-1.3h18.2v1.3h-0.1V314.6
			z"/>
		<path d="M596.6,302.3c0-1.8,0.5-2.2,3.9-2.2c2.6,0,10.6,0.1,10.6,8.4c0,8.8-9.3,8.9-14.5,9V302.3z M624.7,337.5
			c-2.6-0.1-4-1.3-5.4-2.8L606.6,319c3.1-0.6,11.1-2.1,11.1-10.3c0-9.4-10.2-10.9-15.6-10.9H585v1.2c4.3,0.4,5.3,1,5.3,5.6v26.7
			c0,4.7-0.3,5.9-5.3,6.2v1.2h17.2v-1.2c-4.9-0.3-5.6-1.4-5.6-5.6v-12.1l3.5-0.1l14.7,19h10v-1.2L624.7,337.5L624.7,337.5z"/>
		<path d="M666.1,338.6h-33.3v-1.2c4-0.3,5.4-0.8,5.4-5.6v-27.3c0-4.9-1.4-5.3-5.4-5.6v-1.2h32.7l0.1,8.8h-1.4
			c-0.9-5.4-2.6-6.5-9.4-6.5h-8.3c-1.3,0-2.1,0-2.1,2.1V316h9.4c5.4,0,6.1-1.4,6.7-5.8h1.4v14.3h-1.4c-0.8-4.9-1.7-5.8-6.7-5.8
			l-9.4-0.1v15.2c0,2.6,0,2.6,9.2,2.6c7.8,0,10.9-1.8,13.4-8.1h1.7L666.1,338.6z"/>
		<path d="M710.6,338.6h-33.3v-1.2c4-0.3,5.3-0.8,5.3-5.6v-27.3c0-4.9-1.4-5.3-5.3-5.6v-1.2H710l0.1,8.8h-1.6
			c-0.9-5.4-2.6-6.5-9.4-6.5h-8.3c-1.3,0-2.1,0-2.1,2.1V316h9.4c5.4,0,6.1-1.4,6.7-5.8h1.4v14.3h-1.4c-0.8-4.9-1.7-5.8-6.7-5.8
			l-9.4-0.1v15.2c0,2.6,0,2.6,9.2,2.6c7.8,0,10.7-1.8,13.4-8.1h1.7L710.6,338.6z"/>
		<path d="M764.6,299.1c-3.9,0.4-5.8,0.6-5.8,7.9v32.4h-1l-27.1-33.7h-0.1v24c0,6.3,1.3,7.8,5.8,7.9v1.2h-14.5v-1.3
			c4.7-0.3,5.9-1.3,5.9-7.9v-27.1c-2.6-3.1-3.5-3.4-5.9-3.4v-1.2h10.6l23.5,29.6h0.1V307c0-7.1-1.7-7.6-5.9-7.9v-1.2h14.5
			L764.6,299.1L764.6,299.1z"/>
		<path d="M411.6,332.3c0,0,5.6,7.5,20.8,2.2c12.5-4.3,16.8,0.1,16.8,0.1s-7.6-1.4-17.7,2.7C416.2,344.4,411.6,332.3,411.6,332.3z"
			/>
	</g>
	<path d="M151.2,262.6H177v4.7h-7.5v15.1h-11v-15.1h-7.4L151.2,262.6L151.2,262.6z"/>
	<path d="M218.5,262.6h11v19.8h-11v-8h-5.3v8h-11v-19.8h11v7.1h5.3V262.6z"/>
	<path d="M257.2,262.6h23.5v4.5h-12.5v3.1H280v4.3h-11.8v3.5h13.1v4.5h-24v-19.9H257.2z"/>
	<path d="M333,262.6h15.9l3.2,12h0.1l3.6-12h15.5v19.8H361v-14.5h-0.1l-4.8,14.3h-7.9l-4.8-14.3h-0.1v14.3H333V262.6L333,262.6z"/>
	<path d="M412.9,275.1h-5l2.5-8.1h0.1L412.9,275.1z M415.3,282.3h11.2l-9.2-19.6h-13.7l-9.3,19.8h11.2l1-3h7.4L415.3,282.3z"/>
	<path d="M451.6,262.6h11v15.2h11.9v4.5h-22.9V262.6z"/>
	<path d="M500.3,262.6h11v15.2h11.9v4.5h-22.9L500.3,262.6L500.3,262.6z"/>
	<path d="M588.1,275.1h-5l2.5-8.1h0.1L588.1,275.1z M590.5,282.3h11.2l-9.2-19.8h-13.7l-9.3,19.8h11.2l1-3h7.4L590.5,282.3z"/>
	<path d="M622.6,262.6h25.8v4.7h-7.5v15.1h-11v-15.1h-7.5v-4.7H622.6z"/>
</g>
</svg>
